<svg width="4.4219mm" height="26.44mm" version="1.1" viewBox="0 0 4.4219 26.44" xml:space="preserve" xmlns="http://www.w3.org/2000/svg"><title>!!</title><path d="m0.726 25.91c-0.35024-0.35024-0.52917-0.88194-0.52917-1.5725 0-0.77821 0.14942-1.148 0.58804-1.4552 0.32342-0.22653 0.96962-0.41188 1.436-0.41188 0.60094 0 1.0077 0.20309 1.3963 0.69714 0.3038 0.38621 0.54837 1.0876 0.54837 1.5725 0 0.60463-0.18186 1.0027-0.58804 1.2872-0.32342 0.22653-0.97826 0.41188-1.4552 0.41188-0.51439 0-1.0824-0.21527-1.3963-0.52917zm0.87987-6.2069c-0.46196-0.20094-1.0444-0.67741-1.2943-1.0588-0.36944-0.56384-0.3978-0.81765-0.15167-1.3578 0.16649-0.3654 0.71533-0.83678 1.2197-1.0475 0.50432-0.21072 1.2117-0.38313 1.5719-0.38313 0.37687 0 0.82983 0.24967 1.0668 0.58804 0.22653 0.32342 0.40809 0.9485 0.40346 1.3891-0.0046 0.44056-0.15346 0.98994-0.33073 1.2208-0.17727 0.23089-0.58238 0.55831-0.90023 0.7276-0.31786 0.16929-0.61551 0.30314-0.66146 0.29744s-0.46151-0.17476-0.92346-0.37571zm0.23138-6.0169c-0.22901-0.22901-0.3175-2.0584-0.3175-6.564 0-5.0257 0.07454-6.3469 0.38138-6.7601 0.30529-0.41113 0.47684-0.45509 0.8599-0.22034 0.43768 0.26822 0.48457 0.85375 0.54939 6.8606 0.05479 5.0774-0.0052 6.6157-0.26458 6.7803-0.1845 0.11711-0.46047 0.21474-0.61327 0.21697-0.1528 0.0022-0.42069-0.13882-0.59531-0.31345z"/></svg>
