<svg width="4.2303mm" height="27.098mm" version="1.1" viewBox="0 0 4.2303 27.098" xml:space="preserve" xmlns="http://www.w3.org/2000/svg"><title>!!i</title><g transform="translate(-116.94 -128.84)"><path d="m119.22 155.74c-0.33479-0.2553-0.46669-1.5166-0.71999-6.8849-0.27594-5.8483-0.26503-6.6174 0.0991-6.9815 0.58664-0.58664 1.1924-0.24048 1.354 0.77376 0.20843 1.3079 0.64443 12.442 0.50177 12.814-0.18923 0.49314-0.77902 0.62622-1.2348 0.27862zm-1.7053-17.431c-0.95619-0.95619 0.25516-3.1221 1.7461-3.1221 1.549 0 2.3021 1.9994 1.1151 2.9606-0.67259 0.54463-2.3817 0.6411-2.8613 0.16151zm-0.26459-5.8208c-0.33824-0.33825-0.4258-1.7382-0.15314-2.4488 0.22312-0.58145 1.4882-1.2025 2.4494-1.2025 0.99389 0 1.6195 0.61313 1.6195 1.5871 0 1.523-2.9186 3.0614-3.9158 2.0641z"/></g></svg>
