<svg width="4.5025mm" height="25.112mm" version="1.1" viewBox="0 0 4.5025 25.112" xml:space="preserve" xmlns="http://www.w3.org/2000/svg"><title>!</title><g transform="translate(-84.545 -111.31)"><path d="m86 136.3c-1.0076-0.27269-1.4555-0.88676-1.4555-1.9956 0-1.222 0.78353-1.9338 2.1287-1.9338 2.017 0 3.1383 2.1221 1.7739 3.3569-0.75438 0.68273-1.4438 0.84402-2.4471 0.5725zm-0.08319-7.0683c-0.2595-0.16456-0.4576-2.3744-0.78252-8.729-0.39051-7.6374-0.39361-8.5501-0.03024-8.9134 0.57805-0.57805 1.2554-0.2112 1.4119 0.76465 0.07359 0.45889 0.31085 4.3394 0.52726 8.6234 0.39407 7.8012 0.35502 8.4901-0.48062 8.4788-0.16408-2e-3 -0.45469-0.10321-0.6458-0.2244z"/></g></svg>
