<svg width="33.338mm" height="38.236mm" version="1.1" viewBox="0 0 33.338 38.236" xml:space="preserve" xmlns="http://www.w3.org/2000/svg"><title>a</title><g transform="translate(-133.58 -195.44)"><path d="m164.67 233.08c-0.58208-0.34149-3.3205-1.923-6.0854-3.5144-23.608-13.588-25.003-14.427-25.003-15.03 0-0.32609 0.17171-0.73539 0.38157-0.90957 0.36155-0.30005 29.334-17.081 30.934-17.917 0.4226-0.22081 1.0353-0.32501 1.3891-0.23621l0.63296 0.15886v18.771c0 18.288-0.0132 18.778-0.51177 19.045-0.63178 0.33812-0.47911 0.37043-1.7372-0.36764zm0.33445-26.978-0.0699-8.3049-6.6146 3.8256c-3.638 2.104-9.9483 5.7399-14.023 8.0797-4.0746 2.3398-7.5516 4.3853-7.7267 4.5455-0.23831 0.2181 3.2882 2.3726 14.023 8.5671l14.341 8.2758 0.0699-8.3419c0.0384-4.5881 0.0384-12.079 0-16.647z"/></g></svg>
