<svg width="38.193mm" height="33.53mm" version="1.1" viewBox="0 0 38.193 33.53" xml:space="preserve" xmlns="http://www.w3.org/2000/svg"><title>aa</title><g transform="translate(-86.129 -132.01)"><path d="m86.384 164.98c-0.35787-0.51093-0.34889-0.663 0.0898-1.5214 1.0331-2.0214 17.782-30.871 18.119-31.21 0.1975-0.19851 0.58383-0.28565 0.86739-0.19565 0.58565 0.18588 18.862 31.623 18.862 32.444 0 0.2761-0.2303 0.62525-0.51177 0.77589-0.3386 0.18121-6.6902 0.27389-18.77 0.27389h-18.259zm35.293-1.6228c0-0.18613-0.93197-1.9423-2.071-3.9026-2.6305-4.527-11.821-20.453-13.166-22.815-0.56014-0.98378-1.1278-1.7522-1.2615-1.7077-0.24883 0.0829-16.563 28.207-16.57 28.566-0.0023 0.10914 7.4373 0.19844 16.532 0.19844 13.253 0 16.536-0.0672 16.536-0.33841z"/></g></svg>
