<svg width="38.219mm" height="33.56mm" version="1.1" viewBox="0 0 38.219 33.56" xml:space="preserve" xmlns="http://www.w3.org/2000/svg"><title>ai</title><g transform="translate(-11.553 -95.791)"><path d="m29.721 128.81c-1.6801-2.6581-18.168-31.54-18.168-31.825 0-0.20124 0.1871-0.55299 0.41577-0.78167 0.36992-0.36992 2.4053-0.41538 18.455-0.41216 9.9214 2e-3 18.303 0.07437 18.625 0.16086 0.97218 0.26063 0.96472 1.0012-0.02814 2.7969-0.50753 0.91789-4.6679 8.1578-9.2452 16.089-7.2733 12.602-8.4073 14.43-8.9955 14.502-0.47186 0.0576-0.78858-0.10062-1.0594-0.52916zm10.103-17.809 7.6487-13.229-8.2831-0.06984c-4.5557-0.03841-12.098-0.03841-16.76 0l-8.4774 0.06984 16.735 29.007 0.74409-1.2742c0.40925-0.70079 4.186-7.2273 8.3928-14.503z"/></g></svg>
