<svg width="38.728mm" height="6.8737mm" version="1.1" viewBox="0 0 38.728 6.8737" xml:space="preserve" xmlns="http://www.w3.org/2000/svg"><title>aus</title><g transform="translate(-67.626 -205.17)"><path d="m68.022 211.84c-0.07277-0.11775-0.21098-1.3977-0.30713-2.8443-0.1631-2.454-0.13688-2.67 0.39159-3.2255l0.56641-0.59531h36.768l0.24629 0.59531c0.40969 0.99026 0.85847 5.2736 0.58154 5.5505-0.13694 0.13694-0.5306 0.20913-0.8748 0.16043-0.5641-0.0798-0.64789-0.27123-0.84946-1.9406-0.12299-1.0186-0.26808-2.0009-0.32242-2.1828-0.0777-0.26022-3.7983-0.33073-17.451-0.33073h-17.352l0.0489 2.2172c0.0269 1.2194-0.0336 2.3505-0.13431 2.5135-0.21144 0.3421-1.1157 0.39886-1.3114 0.0823z"/></g></svg>
