<svg width="38.064mm" height="25.905mm" version="1.1" viewBox="0 0 38.064 25.905" xml:space="preserve" xmlns="http://www.w3.org/2000/svg"><title>b</title><g transform="translate(-45.108 -34.439)"><path d="m68.929 59.942c-2.639-0.44225-6.9947-1.8578-9.3314-3.0326-6.9128-3.4756-11.635-8.5735-13.707-14.797-0.70879-2.1294-1.0461-6.6607-0.54112-7.2692 0.29452-0.35487 2.569-0.40374 18.791-0.40374 19.89 0 19.508-0.0266 18.794 1.306-0.29086 0.54347-0.37794 0.54608-18.222 0.54608h-17.929l0.20336 2.1036c0.65762 6.8027 5.6999 13.056 13.581 16.844 4.851 2.3312 8.9769 3.2776 14.289 3.2776 2.5818 0 2.7518 0.0334 2.9237 0.57516 0.32258 1.0164-0.45805 1.2799-3.7032 1.25-1.6093-0.0148-3.9265-0.1946-5.1494-0.39953z"/></g></svg>
