<svg width="37.103mm" height="28.122mm" version="1.1" viewBox="0 0 37.103 28.122" xml:space="preserve" xmlns="http://www.w3.org/2000/svg"><title>bd</title><g transform="translate(15.708 -101.25)"><path d="m2.4692 120.6c-13.98-7.0136-17.68-8.9751-17.977-9.5301-0.46922-0.87676-0.12979-2.316 1.1991-5.0842 3.3801-7.0412 8.729-6.0824 10.578 1.8962 0.41158 1.776 0.66263 6.4778 0.38719 7.2518-0.0954 0.26797 3.3386 2.1142 12.303 6.6146 11.423 5.7348 12.435 6.2967 12.435 6.9043 0 0.51354-0.14792 0.67456-0.66146 0.72004-0.42296 0.0375-7.0086-3.1257-18.264-8.7726zm-7.5059-8.6038c-0.30857-4.4803-1.5067-7.8033-3.1131-8.634-0.7638-0.39498-0.9094-0.39616-1.7111-0.0138-0.48197 0.22983-1.2281 0.90356-1.6581 1.4972-0.84207 1.1624-2.494 4.8951-2.3533 5.3173 0.0945 0.28342 8.0578 4.3578 8.6485 4.425 0.30381 0.0345 0.33669-0.4207 0.18717-2.5916z"/></g></svg>
