<svg width="38.542mm" height="25.796mm" version="1.1" viewBox="0 0 38.542 25.796" xml:space="preserve" xmlns="http://www.w3.org/2000/svg"><title>bhy</title><g transform="translate(-49.743 -140.92)"><path d="m77.08 166.52c-14.273-1.3857-22.287-4.9838-25.361-11.387-1.3648-2.8426-1.7805-6.0443-0.83212-6.4083 0.6404-0.24575 1.1046 0.48401 1.4073 2.2125 0.16566 0.94588 0.72321 2.5756 1.239 3.6215 2.8756 5.8313 11.751 9.4256 25.399 10.286 3.2787 0.20675 3.9063 0.41518 3.7864 1.2575-0.07337 0.5154-0.25269 0.58126-1.6697 0.61325-0.87312 0.0197-2.6591-0.0682-3.9688-0.19533zm-27.117-24.179c-0.49065-0.5912-0.13661-1.1458 0.84319-1.321 0.48059-0.0859 9.0166-0.12225 18.969-0.0807 16.549 0.069 18.119 0.11313 18.373 0.51631 0.20176 0.31989 0.18263 0.55581-0.06973 0.85989-0.31132 0.37513-2.3103 0.41906-19.068 0.41906-16.247 0-18.764-0.052-19.047-0.39351z"/></g></svg>
