<svg width="36.683mm" height="25.601mm" version="1.1" viewBox="0 0 36.683 25.601" xml:space="preserve" xmlns="http://www.w3.org/2000/svg"><title>d</title><g transform="translate(-.95058 -229.49)"><path d="m19.575 253.86c-0.56006-0.69123-2.339-2.8046-3.9533-4.6964-9.9912-11.709-14.671-17.413-14.671-17.882 0-0.29071 0.24489-0.79147 0.54421-1.1128l0.54421-0.58425 17.117-0.075c9.4142-0.0412 17.371-0.0125 17.683 0.0639 0.63523 0.15576 0.94917 0.73727 0.72018 1.334-0.13319 0.34709-2.2894 0.39687-17.19 0.39687-14.658 0-17.037 0.0533-17.037 0.38126 0 0.2097 0.11555 0.45267 0.25677 0.53995 0.32063 0.19817 17.438 20.371 18.049 21.271 0.32345 0.47625 0.37564 0.79066 0.18913 1.1392-0.43042 0.80424-1.1815 0.5456-2.2519-0.77541z"/></g></svg>
