<svg width="38.358mm" height="27.208mm" version="1.1" viewBox="0 0 38.358 27.208" xml:space="preserve" xmlns="http://www.w3.org/2000/svg"><title>dd</title><g transform="translate(-52.747 -160.19)"><path d="m71.702 187.23c-0.09701-0.097-0.17639-5.812-0.17639-12.7v-12.524h-8.9453c-9.4524 0-10.018-0.0698-9.7992-1.2081 0.09615-0.49934 0.55061-0.51332 18.851-0.57961 18.49-0.067 19.473-0.0295 19.473 0.74289 0 0.1173-0.1871 0.40038-0.41577 0.62906-0.36075 0.36075-1.5425 0.41576-8.9297 0.41568l-8.5139-1e-4 0.07382 12.333c0.05394 9.0109-0.0082 12.432-0.23083 12.7-0.3199 0.38545-1.0862 0.49086-1.3864 0.19069z"/></g></svg>
