<svg width="37.985mm" height="22.169mm" version="1.1" viewBox="0 0 37.985 22.169" xml:space="preserve" xmlns="http://www.w3.org/2000/svg"><title>dj</title><g transform="translate(91.045 -127.29)"><path d="m-79.38 139.56c-7.0026-7.1478-9.7832-9.8261-9.8342-9.472-0.0391 0.27147 0.0932 2.0414 0.29402 3.9332 0.22325 2.1032 0.27296 3.6195 0.12793 3.9026-0.25206 0.49207-1.1428 0.62945-1.3985 0.21569-0.0841-0.13604-0.34517-2.1209-0.58021-4.4108-0.3225-3.142-0.35374-4.2813-0.12733-4.6439 0.165-0.26422 0.3-0.70625 0.3-0.98229 0-0.29683 0.24324-0.56708 0.59532-0.66144 0.93067-0.24941 36.271-0.18614 36.668 0.0656 0.19463 0.12337 0.31369 0.5085 0.26458 0.85585l-0.0893 0.63154-33.739 0.26458 9.2813 9.4556c7.4187 7.5581 9.2643 9.5758 9.1963 10.054-0.22959 1.6173-0.93076 1.0281-10.959-9.2084z"/></g></svg>
