<svg width="33.29mm" height="38.003mm" version="1.1" viewBox="0 0 33.29 38.003" xml:space="preserve" xmlns="http://www.w3.org/2000/svg"><title>e</title><g transform="translate(100.34 -179.96)"><path d="m-100.07 217.67c-0.24036-0.28961-0.3001-4.8588-0.24849-19.005l0.0679-18.624 0.69772-0.0808c0.70865-0.0821 1.6268 0.42212 18.088 9.933 14.223 8.2177 14.42 8.3399 14.42 8.9459 0 0.31176-0.20836 0.7438-0.46302 0.96009-0.82252 0.69858-31.073 18.028-31.669 18.142-0.31685 0.0606-0.71848-0.0615-0.89252-0.27116zm17.485-11.171c7.0795-4.0746 12.877-7.4706 12.883-7.5467 0.0093-0.11719-27.955-16.364-28.604-16.619-0.12375-0.0485-0.225 7.4296-0.225 16.618v16.706l1.5371-0.87521c0.8454-0.48137 7.3294-4.209 14.409-8.2836z"/></g></svg>
