<svg width="37.018mm" height="29.724mm" version="1.1" viewBox="0 0 37.018 29.724" xml:space="preserve" xmlns="http://www.w3.org/2000/svg"><title>eu</title><g transform="translate(517.03 -218.17)"><path d="m-510.51 247.26c-3.009-1.0692-4.9176-3.29-4.9176-5.722 0-1.6498-0.81623-5.8761-1.2266-6.3511-0.82265-0.95217-0.16447-7.0154 1.0159-9.3587 1.5805-3.1377 4.5132-6.2352 6.9051-7.2933 2.7058-1.1969 4.5986 0.48978 6.796 6.056 1.0482 2.6554 2.1106 4.7898 2.3862 4.794 0.0736 1e-3 0.39513-0.56351 0.71449-1.2547 0.75204-1.6277 4.1662-5.1598 6.6923-6.9233l1.9844-1.3854 2.6934 0.0864c3.1974 0.10253 3.6216 0.33321 5.0955 2.7707 1.7511 2.8959 2.139 4.5802 2.302 9.9931 0.13612 4.522 0.1071 4.9272-0.52794 7.3708-0.96207 3.7019-2.2885 5.459-5.2569 6.9635-1.7757 0.89998-3.1508 1.0998-4.6553 0.67635-1.1469-0.32278-3.9594-3.4824-5.2161-5.8599-2.6301-4.9757-3.3035-6.1133-3.4195-5.7763-0.0667 0.19381-0.25029 1.1263-0.40802 2.0722-0.55346 3.3191-1.6035 6.0461-2.8709 7.4558-1.4971 1.6652-2.2373 2.0308-4.4508 2.1989-1.4809 0.11244-2.1359 0.02-3.6356-0.51286zm4.7263-1.4592c2.2509-0.52195 3.646-3.3635 4.7766-9.7296l0.66903-3.7668-1.283-2.5832c-0.70567-1.4208-1.671-3.5594-2.1452-4.7526-1.6694-4.2005-2.916-5.5381-4.4314-4.7544-2.7366 1.4152-5.8705 5.6-6.5792 8.7857-0.47721 2.145-0.44598 2.76 0.3622 7.1339 0.29578 1.6007 0.62148 3.6843 0.72378 4.6302 0.1023 0.94589 0.34691 2.0378 0.54356 2.4265 0.46428 0.91771 1.7411 1.8139 3.4027 2.3885 1.5014 0.51915 2.4493 0.57221 3.9609 0.22169zm19.155-0.38596c1.3248-0.67131 2.9236-2.2476 3.5606-3.5105 0.99447-1.9714 1.3113-4.4622 1.1821-9.2923-0.11346-4.2398-0.1902-4.8486-0.81536-6.469-0.76712-1.9882-2.0533-4.0134-2.7086-4.2649-0.23524-0.0903-1.2828-0.16413-2.3278-0.16413-1.7449 0-2.0187 0.0789-3.3518 0.96573-2.1079 1.4022-5.5075 4.9709-6.2461 6.5566-1.3316 2.8589-1.2552 3.228 1.9248 9.2942 2.1729 4.145 4.0872 6.8071 5.2261 7.2676 1.001 0.40473 2.2711 0.26781 3.5561-0.38337z"/></g></svg>
