<svg width="39.247mm" height="6.5851mm" version="1.1" viewBox="0 0 39.247 6.5851" xml:space="preserve" xmlns="http://www.w3.org/2000/svg"><title>eus</title><g transform="translate(519.42 -281.64)"><path d="m-519.27 287.87c-0.69677-0.83956 1.1305-2.584 4.5259-4.3208 3.1609-1.6169 7.0256-2.3321 8.8511-1.638 0.39898 0.15169 1.5755 0.5036 2.6144 0.78202 1.039 0.27842 2.7741 0.9159 3.8559 1.4166s3.2718 1.2329 4.8668 1.6272c2.465 0.60927 3.2984 0.69908 5.5562 0.59877 3.1738-0.14101 4.5586-0.66786 6.4802-2.4653 1.4408-1.3477 2.2121-1.4642 2.3414-0.35374 0.0634 0.54405-0.22452 0.96445-1.3899 2.0296-2.0584 1.8812-3.7765 2.4968-7.384 2.6457-2.4814 0.10236-3.2931 0.0188-5.9531-0.61263-1.694-0.40213-3.8539-1.1085-4.7998-1.5696-0.94589-0.46116-2.196-0.97054-2.7781-1.132-0.58208-0.16142-1.8645-0.54026-2.8498-0.84188-0.98532-0.30162-2.1759-0.54664-2.6458-0.54449-2.6216 0.012-7.675 2.151-9.2107 3.8987-0.80804 0.91957-1.5699 1.0953-2.0806 0.47994z"/></g></svg>
