<svg width="37.785mm" height="25.492mm" version="1.1" viewBox="0 0 37.785 25.492" xml:space="preserve" xmlns="http://www.w3.org/2000/svg"><title>ghy</title><g transform="translate(406.14 -260.14)"><path d="m-370.42 285.18c-0.30768-0.57491-0.35233-16.744-0.0501-18.157 0.13343-0.624 0.31063-0.79375 0.82859-0.79375h0.65886v19.315l-0.57741 0.0822c-0.36449 0.0519-0.68158-0.11244-0.8599-0.44563zm-35.355-23.698c-0.41122-0.30536-0.4551-0.47676-0.22017-0.8599 0.27858-0.45432 1.2351-0.47851 18.918-0.47851h18.624l0.0893 0.63153c0.0491 0.34735-0.07 0.73248-0.26458 0.85585-0.19463 0.12337-8.5167 0.22613-18.493 0.22836-15.387 3e-3 -18.217-0.0538-18.653-0.37733z"/></g></svg>
