<svg width="41.126mm" height="27.436mm" version="1.1" viewBox="0 0 41.126 27.436" xml:space="preserve" xmlns="http://www.w3.org/2000/svg"><title>i</title><g transform="translate(449.62 -306.44)"><path d="m-433.63 333.79c-7.4223-1.1884-12.617-5.8876-14.786-13.376-1.3993-4.8304-1.6351-12.945-0.39894-13.728 0.20403-0.1292 9.0113-0.23518 19.73-0.23743l19.362-4e-3 0.50905 0.64715c1.0542 1.3402 0.9344 7.0967-0.22636 10.876-2.2772 7.4141-8.4443 13.287-15.987 15.224-2.0655 0.53049-6.5712 0.85884-8.2021 0.59772zm8.8854-2.7283c8.3697-2.792 13.721-9.5181 14.42-18.123 0.0984-1.2133 0.0967-2.7549-4e-3 -3.4258l-0.18293-1.2199-37.141 0.1358 0.0219 3.9688c0.0263 4.7802 0.6082 7.5635 2.2955 10.98 2.0884 4.2288 5.974 7.3096 10.515 8.3368 2.8217 0.63832 7.0197 0.36605 10.076-0.65349z"/></g></svg>
