<svg width="38.044mm" height="7.265mm" version="1.1" viewBox="0 0 38.044 7.265" xml:space="preserve" xmlns="http://www.w3.org/2000/svg"><title>is</title><g transform="translate(390.32 -306.12)"><path d="m-374.76 313.01c-4.2865-0.5847-8.4944-1.8725-12.209-3.7364-2.5475-1.2783-3.3552-1.8804-3.3552-2.5008 0-0.98768 0.81677-0.86967 3.5379 0.51114 3.2942 1.6716 6.521 2.7786 10.346 3.5494 4.105 0.82712 11.273 0.81608 14.955-0.0231 2.5906-0.59034 7.2838-2.2727 7.5524-2.7073 0.28728-0.46484 1.4013-0.26589 1.575 0.28126 0.25262 0.79594-0.0188 1.0422-2.3561 2.1375-5.4058 2.5332-12.899 3.4633-20.047 2.4883z"/></g></svg>
