<svg width="37.947mm" height="26.223mm" version="1.1" viewBox="0 0 37.947 26.223" xml:space="preserve" xmlns="http://www.w3.org/2000/svg"><title>j</title><g transform="translate(432.41 -324.03)"><path d="m-397.47 350.15c-3.815-0.36402-7.293-2.7037-9.9458-6.6905-2.1845-3.2832-3.6699-7.3488-5.0845-13.917-0.11035-0.51239-0.33445-0.0652-0.99437 1.9844-1.9823 6.1564-5.5636 11.072-10.743 14.747-1.8501 1.3126-5.3777 3.1122-6.1006 3.1122-0.58724 0-1.0784-0.62968-0.88476-1.1343 0.086-0.2242 0.81808-0.67617 1.6268-1.0044 2.2434-0.91055 5.276-3.007 7.5797-5.2401 4.128-4.0013 6.8964-9.4163 7.6915-15.045l0.15885-1.1245h-8.6195c-5.4356 0-8.8085-0.10117-9.1312-0.27389-0.65663-0.35142-0.65508-0.95371 3e-3 -1.3061 0.34671-0.18555 6.5538-0.25347 18.984-0.20774l18.245 7e-4s0.21445 0.0882 0.22399 0.86095c7e-3 0.58064-0.19039 0.72655-0.19039 0.72655l-8.2028 0.1371-8.3932 0.0698 0.15146 0.85619c1.7341 9.8026 3.5683 14.458 7.1347 18.109 2.2028 2.2549 3.9346 3.1586 6.9388 3.621 1.893 0.29137 2.0378 0.35968 2.1127 0.99678 0.10264 0.87258-0.17096 0.94972-2.56 0.72175z"/></g></svg>
