<svg width="11.429mm" height="26.158mm" version="1.1" viewBox="0 0 11.429 26.158" xml:space="preserve" xmlns="http://www.w3.org/2000/svg"><title>kk</title><path d="m5.5956 25.84c-0.15556-0.18744-0.36538-1.7214-0.46626-3.4088l-0.18342-3.068-1.0257-0.30732c-2.1412-0.64153-3.9111-2.9794-3.9201-5.1782-0.01018-2.486 1.1456-4.381 3.3116-5.4296l1.179-0.57074v-3.8212c0-3.236 0.06392-3.8457 0.41739-3.9813 0.93607-0.3592 1.2238 0.50935 1.371 4.1391l0.14143 3.4871 1.3631 0.60284c1.7109 0.75663 3.2053 2.4509 3.5381 4.0112 0.27912 1.3087-0.0099 3.3247-0.60729 4.2365-0.67092 1.0239-2.087 2.2082-3.0052 2.513l-0.88258 0.29307 0.08883 3.1566c0.07278 2.5863 0.01713 3.2019-0.30805 3.4075-0.52803 0.33387-0.67683 0.32185-1.0118-0.08175zm-0.7227-9.4047c-0.11571-6.5957-0.09688-6.3941-0.59726-6.3941-0.51144 0-1.6434 1.0785-2.1338 2.0331-0.75704 1.4735-0.10862 3.7552 1.3586 4.7807 1.0666 0.74552 1.3912 0.64626 1.3725-0.41977zm4.1267-0.65226c0.81905-1.3427 0.8998-2.3584 0.29602-3.7233-0.46976-1.062-1.7972-2.2787-2.4898-2.2821-0.23412-0.00117-0.27113 6.6455-0.04035 7.2469 0.14222 0.37061 0.23637 0.37149 0.93774 0.0088 0.42881-0.22175 1.0122-0.78435 1.2964-1.2502z"/></svg>
