<svg width="38.613mm" height="25.931mm" version="1.1" viewBox="0 0 38.613 25.931" xml:space="preserve" xmlns="http://www.w3.org/2000/svg"><title>l</title><path d="m0.031199 25.425c-0.21487-0.67699 0.70944-4.8113 1.8698-8.3634 2.1614-6.6165 5.6787-11.81 9.581-14.147l1.7644-1.0567-6.4764-0.070994c-6.1626-0.067555-6.4812-0.095785-6.5748-0.58267-0.23258-1.2093-0.24803-1.2084 19.258-1.2041 10.122 0.00223 18.563 0.10499 18.758 0.22836 0.19463 0.12337 0.3137 0.5085 0.26458 0.85584l-0.0893 0.63154-16.318 0.26458 1.5446 0.75465c3.2909 1.6078 6.4997 4.4326 9.1787 8.0804 2.586 3.5211 5.6727 10.873 5.8075 13.832 0.0485 1.0648 1e-3 1.1516-0.66617 1.2286-0.60055 0.06924-0.74571-0.03924-0.88506-0.66146-2.3729-10.596-8.6509-19.044-15.991-21.518-1.3881-0.46788-2.1536-0.55895-3.9688-0.47217-2.872 0.13731-4.7146 0.94819-6.9192 3.045-3.5545 3.3805-5.7683 7.8288-7.7977 15.668-0.50579 1.9537-0.98029 3.6503-1.0544 3.7703-0.25357 0.41028-1.126 0.21881-1.285-0.28201z"/></svg>
