<svg width="37.945mm" height="38.084mm" version="1.1" viewBox="0 0 37.945 38.084" xml:space="preserve" xmlns="http://www.w3.org/2000/svg"><title>o</title><path d="m14.904 37.761c-5.4772-1.1448-10.614-5.2008-13.058-10.311-1.5443-3.2285-1.8654-4.7056-1.8454-8.49 0.01977-3.7565 0.46188-5.6515 2.0371-8.7312 1.4998-2.9322 5.288-6.7255 8.1321-8.143 8.5194-4.2459 18.446-1.8611 24.19 5.8112 4.4541 5.9498 4.7939 14.72 0.81803 21.117-2.3104 3.7174-6.2282 6.8536-10.234 8.1926-2.6909 0.89939-7.1982 1.1484-10.039 0.55455zm9.5095-2.352c2.6639-0.91864 4.5537-2.1116 6.6232-4.1812 3.2993-3.2993 4.7909-6.6249 4.9991-11.145 0.1677-3.641-0.19772-5.5219-1.6639-8.5645-1.9868-4.123-5.9085-7.5095-10.312-8.9047-2.6519-0.84023-7.6669-0.84023-10.319 0-5.1206 1.6224-9.6548 6.1186-11.282 11.187-0.76061 2.3697-0.93468 6.4015-0.38837 8.9958 0.69476 3.2992 2.0086 5.5961 4.77 8.3392 2.6851 2.6673 4.6726 3.8416 7.8877 4.6606 2.7545 0.70166 7.0218 0.53113 9.6842-0.387z"/></svg>
