<svg width="38.858mm" height="28.292mm" version="1.1" viewBox="0 0 38.858 28.292" xml:space="preserve" xmlns="http://www.w3.org/2000/svg"><title>r</title><path d="m37.321 27.715c-0.12616-0.32742-0.36224-1.4637-0.52461-2.525-1.8046-11.795-14.51-17.999-25.693-12.545-1.5011 0.73202-2.536 1.5172-4.249 3.2235-2.5664 2.5563-3.7315 4.5407-4.8587 8.2751-0.57516 1.9054-0.79245 2.3151-1.2278 2.3151-0.29093 0-0.6047-0.19737-0.69727-0.4386-0.31966-0.83301 0.48287-3.6718 1.8165-6.4255 1.1595-2.3942 1.6432-3.0666 3.6236-5.0368 3.9588-3.9385 8.2241-5.675 13.927-5.6702 3.7666 0.0032 5.9054 0.47458 9.0095 1.9857 3.7176 1.8098 6.5334 4.6224 8.3191 8.3094 1.5881 3.279 2.5658 7.8732 1.8572 8.727-0.479 0.57715-1.0375 0.4939-1.3026-0.19418zm-36.772-26.225c-0.45768-0.55148-0.09252-1.1472 0.81442-1.3286 0.44545-0.08909 8.6304-0.16198 18.189-0.16198 18.414 0 18.465 0.0034 18.233 1.2081-0.09612 0.49922-0.54679 0.51333-18.516 0.57961-15.397 0.0568-18.467 0.0081-18.72-0.29719z"/></svg>
