<svg width="40.677mm" height="29.712mm" version="1.1" viewBox="0 0 40.677 29.712" xml:space="preserve" xmlns="http://www.w3.org/2000/svg"><title>u</title><path d="m0.996 29.427c-0.93825-0.34325-1.1383-1.6408-0.9097-5.8991 0.6691-12.462 5.0218-20.097 13.001-22.805 1.8125-0.61511 2.5539-0.71904 5.1594-0.72326 5.7888-0.0094 10.705 2.0949 15.303 6.5502 4.1904 4.0605 6.5817 9.1804 7.0796 15.158 0.21226 2.5483-0.30529 7.074-0.87402 7.6427-0.32279 0.32279-3.1901 0.3763-19.212 0.35853-11.68-0.01295-19.104-0.1201-19.547-0.2821zm37.546-2.2767c0.39298-1.4503 0.2163-6.7332-0.29422-8.7974-1.6296-6.5889-6.215-12.105-12.428-14.952-8.4496-3.871-16.902-1.0283-20.869 7.0187-1.9959 4.0485-3.1077 9.5535-3.1077 15.388v2.0707h36.502z"/></svg>
