<svg width="38.551mm" height="7.622mm" version="1.1" viewBox="0 0 38.551 7.622" xml:space="preserve" xmlns="http://www.w3.org/2000/svg"><title>us</title><path d="m34.747 6.0979c-3.0769-1.5841-6.8109-2.9135-10.318-3.6735-3.2627-0.70707-10.107-0.63835-13.169 0.13224-3.042 0.76539-5.4973 1.829-8.1493 3.5302-2.1521 1.3805-2.7812 1.4901-3.098 0.53976-0.29177-0.87532 4.6041-3.9045 8.3941-5.1935 6.4546-2.1953 15.026-1.8495 22.505 0.90814 1.2369 0.45604 3.4396 1.4491 4.8948 2.2069 2.0974 1.0921 2.6643 1.5086 2.7351 2.0092 0.07698 0.54444-0.33348 1.1239-0.75075 1.0598-0.07276-0.01117-1.4425-0.69482-3.0438-1.5192z"/></svg>
