<svg width="36.974mm" height="25.85mm" version="1.1" viewBox="0 0 36.974 25.85" xml:space="preserve" xmlns="http://www.w3.org/2000/svg"><title>w</title><path d="m2.1544 25.692c-0.58886-0.23761-0.39215-1.3873 0.26458-1.5464 0.32742-0.07932 8.1428-0.11135 17.368-0.07119 15.316 0.06669 16.796 0.11131 17.05 0.51387 0.20176 0.31989 0.18263 0.55582-0.06974 0.8599-0.31104 0.37478-2.1403 0.41685-17.315 0.39816-9.3319-0.011486-17.116-0.080939-17.298-0.15434zm-1.0724-8.0964c-0.15555-0.18743-0.48406-3.9638-0.74823-8.6013-0.43824-7.6933-0.44053-8.2976-0.032958-8.7051 0.3528-0.3528 0.51442-0.37452 0.83111-0.11168 0.56956 0.47269 0.62613 0.95491 1.1159 9.5114 0.37899 6.6215 0.39024 7.8008 0.076345 7.9996-0.51612 0.32683-0.9188 0.29672-1.2421-0.09288z"/></svg>
