<svg width="37.752mm" height="25.625mm" version="1.1" viewBox="0 0 37.752 25.625" xml:space="preserve" xmlns="http://www.w3.org/2000/svg"><title>z</title><path d="m14.784 20.52c-2.846-2.8078-7.1139-7.0025-9.4843-9.3215-4.4279-4.3318-4.9796-5.1682-3.5433-5.3717 0.48608-0.06888 1.4752 0.7538 4.7625 3.9611 9.6314 9.3969 14.865 14.608 14.865 14.8 0 0.31033-0.79069 1.0371-1.1283 1.0371-0.16321 0-2.6253-2.2973-5.4712-5.1051zm-14.564-19.101c-0.49065-0.59119-0.13662-1.1458 0.84319-1.321 0.48059-0.08592 8.838-0.12226 18.572-0.08074 15.948 0.06802 17.725 0.11771 17.968 0.50254 0.14814 0.23488 0.19461 0.62184 0.10326 0.8599-0.15158 0.39502-1.7823 0.43284-18.663 0.43284-16.048 0-18.54-0.05209-18.823-0.3935z"/></svg>
