<svg width="38.502mm" height="25.402mm" version="1.1" viewBox="0 0 38.502 25.402" xml:space="preserve" xmlns="http://www.w3.org/2000/svg"><title>zh</title><path d="m0.33508 25.22c-0.09701-0.09701-0.17639-0.39762-0.17639-0.66801 0-0.65252 1.0033-1.0069 2.8615-1.0108 3.4777-0.0073 6.9266-1.5829 9.8385-4.4948 3.1364-3.1364 4.8003-6.5679 5.2224-10.77 0.14318-1.4254 0.32917-2.0866 0.64237-2.2836 0.73765-0.46392 1.2789 0.23579 1.2789 1.6532 0 1.7406 0.65429 4.046 1.7283 6.0899 2.8475 5.4187 8.7107 9.0651 15.443 9.604 1.8904 0.15133 1.6643 1.7918-0.24702 1.7918-1.7136 0-4.8843-0.72279-6.9585-1.5863-4.3973-1.8306-8.2372-5.4215-10.256-9.5906l-0.6076-1.255-0.54345 1.2629c-2.4263 5.6385-6.8454 9.6187-12.228 11.013-1.6096 0.4171-5.6606 0.58167-5.9986 0.2437zm-0.14856-23.735c-0.40648-0.48977-0.12058-1.1373 0.58578-1.3268 0.31736-0.085113 8.7541-0.15638 18.748-0.15836 16.17-0.00321 18.217 0.042185 18.587 0.41216 0.49901 0.49901 0.5167 0.70038 0.09827 1.1188-0.49975 0.49975-37.604 0.45501-38.019-0.045839z"/></svg>
