<svg width="34.816mm" height="27.69mm" version="1.1" viewBox="0 0 34.816 27.69" xml:space="preserve" xmlns="http://www.w3.org/2000/svg"><title>zv</title><path d="m17.974 22.168c-18.61-6.6279-17.525-6.1938-17.415-6.9639 0.05906-0.41617 0.28856-0.62333 0.74673-0.67406 0.3638-0.04028 7.2099 2.2655 15.214 5.124 8.0036 2.8585 15.307 5.4492 16.229 5.7573 1.7768 0.59327 2.4257 1.252 1.8805 1.9089-0.17344 0.20898-0.50912 0.3755-0.74596 0.37006-0.23684-0.0054-7.3958-2.4905-15.909-5.5223zm-7.0763-8.8215c-0.14408-0.1819-0.34461-1.2799-0.44563-2.44-0.34971-4.0162-2.1195-7.9445-3.9844-8.8437-0.65857-0.31756-0.86182-0.31634-1.4431 0.0087-0.86219 0.48209-2.2222 2.7453-2.9327 4.8802-0.60278 1.8114-1.019 2.3249-1.6791 2.0716-0.5713-0.21923-0.54857-1.2698 0.06613-3.0564 1.4749-4.287 3.4799-6.3167 5.8448-5.9171 2.8954 0.48917 5.528 5.2183 5.9976 10.774 0.13804 1.633 0.0913 2.0271-0.28498 2.4034-0.53625 0.53625-0.78757 0.5626-1.1386 0.11937z"/></svg>
