<svg width="38.04mm" height="23.744mm" version="1.1" viewBox="0 0 38.04 23.744" xml:space="preserve" xmlns="http://www.w3.org/2000/svg"><title>zzh</title><path d="m14.591 16.129c-8.8424-7.532-9.8046-8.525-8.6786-8.9571 0.66992-0.25708 1.216 0.10242 4.6936 3.0897 1.7863 1.5345 5.6589 4.8477 8.6057 7.3628 4.1077 3.5059 5.3578 4.7157 5.3578 5.1854 0 0.50263-0.43313 0.93374-0.93812 0.93374-0.0556 0-4.1238-3.4265-9.0403-7.6144zm-13.915-5.4445c-0.26525-0.69122-0.75125-6.4016-0.6662-7.8275 0.08078-1.3544 0.13286-1.4507 0.87962-1.6274 0.43656-0.1033 8.8696-0.45942 18.74-0.79138 15.536-0.52249 17.978-0.55267 18.186-0.22469 0.31555 0.49865 0.30806 0.59777-0.08287 1.0968-0.28832 0.36801-2.6039 0.49788-18.058 1.0128-9.7499 0.32488-17.812 0.66484-17.915 0.75547-0.10327 0.09063-0.0159 1.7114 0.19415 3.6018 0.21006 1.8904 0.31629 3.6454 0.23608 3.9-0.17298 0.5492-1.3133 0.62758-1.5142 0.10407z"/></svg>
